<svg style="vertical-align: -0.509ex;" xmlns="http://www.w3.org/2000/svg" width="25.641ex" height="2.206ex" role="img" focusable="false" viewBox="0 -750 11333.3 975" xmlns:xlink="http://www.w3.org/1999/xlink"><defs></defs><g stroke="currentColor" fill="currentColor" stroke-width="0" transform="scale(1,-1)"><g data-mml-node="math"><g data-mml-node="mo" transform="translate(0 -25)"><text data-variant="normal" transform="scale(1,-1)" font-size="884px" font-family="serif">(</text></g><g data-mml-node="mn" transform="translate(600,0)"><text data-variant="normal" transform="scale(1,-1)" font-size="884px" font-family="serif">1</text></g><g data-mml-node="mo" transform="translate(1422.2,0)"><text data-variant="normal" transform="scale(1,-1)" font-size="884px" font-family="serif">×</text></g><g data-mml-node="mn" transform="translate(2244.4,0)"><text data-variant="normal" transform="scale(1,-1)" font-size="884px" font-family="serif">2</text></g><g data-mml-node="mo" transform="translate(2844.4,0) translate(0 -25)"><text data-variant="normal" transform="scale(1,-1)" font-size="884px" font-family="serif">)</text></g><g data-mml-node="mo" transform="translate(3666.7,0)"><text data-variant="normal" transform="scale(1,-1)" font-size="884px" font-family="serif">×</text></g><g data-mml-node="mn" transform="translate(4488.9,0)"><text data-variant="normal" transform="scale(1,-1)" font-size="884px" font-family="serif">2</text></g><g data-mml-node="mo" transform="translate(5366.7,0)"><text data-variant="normal" transform="scale(1,-1)" font-size="884px" font-family="serif">=</text></g><g data-mml-node="mn" transform="translate(6244.4,0)"><text data-variant="normal" transform="scale(1,-1)" font-size="884px" font-family="serif">1</text></g><g data-mml-node="mo" transform="translate(7066.7,0)"><text data-variant="normal" transform="scale(1,-1)" font-size="884px" font-family="serif">×</text></g><g data-mml-node="mo" transform="translate(7888.9,0) translate(0 -25)"><text data-variant="normal" transform="scale(1,-1)" font-size="884px" font-family="serif">(</text></g><g data-mml-node="mn" transform="translate(8488.9,0)"><text data-variant="normal" transform="scale(1,-1)" font-size="884px" font-family="serif">2</text></g><g data-mml-node="mo" transform="translate(9311.1,0)"><text data-variant="normal" transform="scale(1,-1)" font-size="884px" font-family="serif">×</text></g><g data-mml-node="mn" transform="translate(10133.3,0)"><text data-variant="normal" transform="scale(1,-1)" font-size="884px" font-family="serif">2</text></g><g data-mml-node="mo" transform="translate(10733.3,0) translate(0 -25)"><text data-variant="normal" transform="scale(1,-1)" font-size="884px" font-family="serif">)</text></g></g></g></svg>