<svg style="vertical-align: -14.14ex;" xmlns="http://www.w3.org/2000/svg" width="30.82ex" height="15.837ex" role="img" focusable="false" viewBox="0 -750 13622.2 7000" xmlns:xlink="http://www.w3.org/1999/xlink"><defs></defs><g stroke="currentColor" fill="currentColor" stroke-width="0" transform="scale(1,-1)"><g data-mml-node="math"><g data-mjx-linestack="true"><g data-mjx-linebox="true" data-mjx-lineno="0"><g data-mml-node="mo" transform="translate(0 -25)"><text data-variant="normal" transform="scale(1,-1)" font-size="884px" font-family="serif">(</text></g><g data-mml-node="mo" transform="translate(600,0) translate(0 -25)"><text data-variant="normal" transform="scale(1,-1)" font-size="884px" font-family="serif">(</text></g><g data-mml-node="mo" transform="translate(1200,0) translate(0 -25)"><text data-variant="normal" transform="scale(1,-1)" font-size="884px" font-family="serif">(</text></g><g data-mml-node="mo" transform="translate(1800,0) translate(0 -25)"><text data-variant="normal" transform="scale(1,-1)" font-size="884px" font-family="serif">(</text></g><g data-mml-node="mn" transform="translate(2400,0)"><text data-variant="normal" transform="scale(1,-1)" font-size="884px" font-family="serif">0</text></g><g data-mml-node="mo" transform="translate(3222.2,0)"><text data-variant="normal" transform="scale(1,-1)" font-size="884px" font-family="serif">+</text></g><g data-mml-node="mn" transform="translate(4044.4,0)"><text data-variant="normal" transform="scale(1,-1)" font-size="884px" font-family="serif">1</text></g><g data-mml-node="mo" transform="translate(4644.4,0) translate(0 -25)"><text data-variant="normal" transform="scale(1,-1)" font-size="884px" font-family="serif">)</text></g><g data-mml-node="mo" transform="translate(5466.7,0)"><text data-variant="normal" transform="scale(1,-1)" font-size="884px" font-family="serif">+</text></g><g data-mml-node="mn" transform="translate(6288.9,0)"><text data-variant="normal" transform="scale(1,-1)" font-size="884px" font-family="serif">2</text></g><g data-mml-node="mo" transform="translate(6888.9,0) translate(0 -25)"><text data-variant="normal" transform="scale(1,-1)" font-size="884px" font-family="serif">)</text></g><g data-mml-node="mo" transform="translate(7711.1,0)"><text data-variant="normal" transform="scale(1,-1)" font-size="884px" font-family="serif">+</text></g><g data-mml-node="mn" transform="translate(8533.3,0)"><text data-variant="normal" transform="scale(1,-1)" font-size="884px" font-family="serif">3</text></g><g data-mml-node="mo" transform="translate(9133.3,0) translate(0 -25)"><text data-variant="normal" transform="scale(1,-1)" font-size="884px" font-family="serif">)</text></g><g data-mml-node="mo" transform="translate(9955.6,0)"><text data-variant="normal" transform="scale(1,-1)" font-size="884px" font-family="serif">+</text></g><g data-mml-node="mn" transform="translate(10777.8,0)"><text data-variant="normal" transform="scale(1,-1)" font-size="884px" font-family="serif">4</text></g><g data-mml-node="mo" transform="translate(11377.8,0) translate(0 -25)"><text data-variant="normal" transform="scale(1,-1)" font-size="884px" font-family="serif">)</text></g><g data-mml-node="mo" transform="translate(12200,0)"><text data-variant="normal" transform="scale(1,-1)" font-size="884px" font-family="serif">+</text></g><g data-mml-node="mn" transform="translate(13022.2,0)"><text data-variant="normal" transform="scale(1,-1)" font-size="884px" font-family="serif">5</text></g><g data-mml-node="mspace" transform="translate(13622.2,0)"></g></g><g data-mjx-linebox="true" data-mjx-lineno="1" transform="translate(1422.2,-1200)"><g data-mml-node="mspace"></g><g data-mml-node="mo" transform="translate(0 -25)"><text data-variant="normal" transform="scale(1,-1)" font-size="884px" font-family="serif">(</text></g><g data-mml-node="mo" transform="translate(600,0) translate(0 -25)"><text data-variant="normal" transform="scale(1,-1)" font-size="884px" font-family="serif">(</text></g><g data-mml-node="mo" transform="translate(1200,0) translate(0 -25)"><text data-variant="normal" transform="scale(1,-1)" font-size="884px" font-family="serif">(</text></g><g data-mml-node="mn" transform="translate(1800,0)"><text data-variant="normal" transform="scale(1,-1)" font-size="884px" font-family="serif">1</text></g><g data-mml-node="mo" transform="translate(2622.2,0)"><text data-variant="normal" transform="scale(1,-1)" font-size="884px" font-family="serif">+</text></g><g data-mml-node="mn" transform="translate(3444.4,0)"><text data-variant="normal" transform="scale(1,-1)" font-size="884px" font-family="serif">2</text></g><g data-mml-node="mo" transform="translate(4044.4,0) translate(0 -25)"><text data-variant="normal" transform="scale(1,-1)" font-size="884px" font-family="serif">)</text></g><g data-mml-node="mo" transform="translate(4866.7,0)"><text data-variant="normal" transform="scale(1,-1)" font-size="884px" font-family="serif">+</text></g><g data-mml-node="mn" transform="translate(5688.9,0)"><text data-variant="normal" transform="scale(1,-1)" font-size="884px" font-family="serif">3</text></g><g data-mml-node="mo" transform="translate(6288.9,0) translate(0 -25)"><text data-variant="normal" transform="scale(1,-1)" font-size="884px" font-family="serif">)</text></g><g data-mml-node="mo" transform="translate(7111.1,0)"><text data-variant="normal" transform="scale(1,-1)" font-size="884px" font-family="serif">+</text></g><g data-mml-node="mn" transform="translate(7933.3,0)"><text data-variant="normal" transform="scale(1,-1)" font-size="884px" font-family="serif">4</text></g><g data-mml-node="mo" transform="translate(8533.3,0) translate(0 -25)"><text data-variant="normal" transform="scale(1,-1)" font-size="884px" font-family="serif">)</text></g><g data-mml-node="mo" transform="translate(9355.6,0)"><text data-variant="normal" transform="scale(1,-1)" font-size="884px" font-family="serif">+</text></g><g data-mml-node="mn" transform="translate(10177.8,0)"><text data-variant="normal" transform="scale(1,-1)" font-size="884px" font-family="serif">5</text></g><g data-mml-node="mspace" transform="translate(10777.8,0)"></g></g><g data-mjx-linebox="true" data-mjx-lineno="2" transform="translate(2844.4,-2400)"><g data-mml-node="mspace"></g><g data-mml-node="mo" transform="translate(0 -25)"><text data-variant="normal" transform="scale(1,-1)" font-size="884px" font-family="serif">(</text></g><g data-mml-node="mo" transform="translate(600,0) translate(0 -25)"><text data-variant="normal" transform="scale(1,-1)" font-size="884px" font-family="serif">(</text></g><g data-mml-node="mn" transform="translate(1200,0)"><text data-variant="normal" transform="scale(1,-1)" font-size="884px" font-family="serif">3</text></g><g data-mml-node="mo" transform="translate(2022.2,0)"><text data-variant="normal" transform="scale(1,-1)" font-size="884px" font-family="serif">+</text></g><g data-mml-node="mn" transform="translate(2844.4,0)"><text data-variant="normal" transform="scale(1,-1)" font-size="884px" font-family="serif">3</text></g><g data-mml-node="mo" transform="translate(3444.4,0) translate(0 -25)"><text data-variant="normal" transform="scale(1,-1)" font-size="884px" font-family="serif">)</text></g><g data-mml-node="mo" transform="translate(4266.7,0)"><text data-variant="normal" transform="scale(1,-1)" font-size="884px" font-family="serif">+</text></g><g data-mml-node="mn" transform="translate(5088.9,0)"><text data-variant="normal" transform="scale(1,-1)" font-size="884px" font-family="serif">4</text></g><g data-mml-node="mo" transform="translate(5688.9,0) translate(0 -25)"><text data-variant="normal" transform="scale(1,-1)" font-size="884px" font-family="serif">)</text></g><g data-mml-node="mo" transform="translate(6511.1,0)"><text data-variant="normal" transform="scale(1,-1)" font-size="884px" font-family="serif">+</text></g><g data-mml-node="mn" transform="translate(7333.3,0)"><text data-variant="normal" transform="scale(1,-1)" font-size="884px" font-family="serif">5</text></g><g data-mml-node="mspace" transform="translate(7933.3,0)"></g></g><g data-mjx-linebox="true" data-mjx-lineno="3" transform="translate(4266.7,-3600)"><g data-mml-node="mspace"></g><g data-mml-node="mo" transform="translate(0 -25)"><text data-variant="normal" transform="scale(1,-1)" font-size="884px" font-family="serif">(</text></g><g data-mml-node="mn" transform="translate(600,0)"><text data-variant="normal" transform="scale(1,-1)" font-size="884px" font-family="serif">6</text></g><g data-mml-node="mo" transform="translate(1422.2,0)"><text data-variant="normal" transform="scale(1,-1)" font-size="884px" font-family="serif">+</text></g><g data-mml-node="mn" transform="translate(2244.4,0)"><text data-variant="normal" transform="scale(1,-1)" font-size="884px" font-family="serif">4</text></g><g data-mml-node="mo" transform="translate(2844.4,0) translate(0 -25)"><text data-variant="normal" transform="scale(1,-1)" font-size="884px" font-family="serif">)</text></g><g data-mml-node="mo" transform="translate(3666.7,0)"><text data-variant="normal" transform="scale(1,-1)" font-size="884px" font-family="serif">+</text></g><g data-mml-node="mn" transform="translate(4488.9,0)"><text data-variant="normal" transform="scale(1,-1)" font-size="884px" font-family="serif">5</text></g><g data-mml-node="mspace" transform="translate(5088.9,0)"></g></g><g data-mjx-linebox="true" data-mjx-lineno="4" transform="translate(5388.9,-4800)"><g data-mml-node="mspace"></g><g data-mml-node="mn"><text data-variant="normal" transform="scale(1,-1)" font-size="884px" font-family="serif">1</text><text data-variant="normal" transform="translate(600,0) scale(1,-1)" font-size="884px" font-family="serif">0</text></g><g data-mml-node="mo" transform="translate(1422.2,0)"><text data-variant="normal" transform="scale(1,-1)" font-size="884px" font-family="serif">+</text></g><g data-mml-node="mn" transform="translate(2244.4,0)"><text data-variant="normal" transform="scale(1,-1)" font-size="884px" font-family="serif">5</text></g><g data-mml-node="mspace" transform="translate(2844.4,0)"></g></g><g data-mjx-linebox="true" data-mjx-lineno="5" transform="translate(6211.1,-6000)"><g data-mml-node="mspace"></g><g data-mml-node="mn"><text data-variant="normal" transform="scale(1,-1)" font-size="884px" font-family="serif">1</text><text data-variant="normal" transform="translate(600,0) scale(1,-1)" font-size="884px" font-family="serif">5</text></g></g></g></g></g></svg>